<?xml version="1.0" encoding="UTF-8" standalone="no"?>
<!-- Created with Inkscape (http://www.inkscape.org/) -->

<svg
   xmlns:dc="http://purl.org/dc/elements/1.1/"
   xmlns:cc="http://creativecommons.org/ns#"
   xmlns:rdf="http://www.w3.org/1999/02/22-rdf-syntax-ns#"
   xmlns:svg="http://www.w3.org/2000/svg"
   xmlns="http://www.w3.org/2000/svg"
   xmlns:sodipodi="http://sodipodi.sourceforge.net/DTD/sodipodi-0.dtd"
   xmlns:inkscape="http://www.inkscape.org/namespaces/inkscape"
   width="220.13252"
   height="56.877583"
   id="svg2"
   version="1.1"
   inkscape:version="0.48.3.1 r9886"
   sodipodi:docname="xwiimote.svg">
  <defs
     id="defs4" />
  <sodipodi:namedview
     id="base"
     pagecolor="#ffffff"
     bordercolor="#666666"
     borderopacity="1.0"
     inkscape:pageopacity="0.0"
     inkscape:pageshadow="2"
     inkscape:zoom="2.6129828"
     inkscape:cx="117.38583"
     inkscape:cy="61.438504"
     inkscape:document-units="px"
     inkscape:current-layer="layer1"
     showgrid="false"
     inkscape:window-width="1280"
     inkscape:window-height="975"
     inkscape:window-x="1024"
     inkscape:window-y="29"
     inkscape:window-maximized="1"
     showguides="true"
     inkscape:guide-bbox="true"
     fit-margin-top="0"
     fit-margin-left="0"
     fit-margin-right="0"
     fit-margin-bottom="0">
    <sodipodi:guide
       orientation="1,0"
       position="43.041166,50.448477"
       id="guide3824" />
    <sodipodi:guide
       orientation="0,1"
       position="35.484616,-2.225103"
       id="guide3941" />
  </sodipodi:namedview>
  <metadata
     id="metadata7">
    <rdf:RDF>
      <cc:Work
         rdf:about="">
        <dc:format>image/svg+xml</dc:format>
        <dc:type
           rdf:resource="http://purl.org/dc/dcmitype/StillImage" />
        <dc:title />
      </cc:Work>
    </rdf:RDF>
  </metadata>
  <g
     inkscape:label="Layer 1"
     inkscape:groupmode="layer"
     id="layer1"
     transform="translate(-72.529564,-321.17126)">
    <text
       xml:space="preserve"
       style="font-size:40px;font-style:normal;font-variant:normal;font-weight:normal;font-stretch:normal;line-height:125%;letter-spacing:0px;word-spacing:0px;fill:#eff0f1;fill-opacity:1;stroke:none;font-family:Oxygen-Sans;-inkscape-font-specification:Oxygen-Sans"
       x="143.09177"
       y="364.31076"
       id="text3963"
       sodipodi:linespacing="125%"><tspan
         sodipodi:role="line"
         id="tspan3965"
         x="143.09177"
         y="364.31076">Wiimote</tspan></text>
    <rect
       style="fill:#192629;fill-opacity:1;stroke:none"
       id="rect3017"
       width="18.131062"
       height="18.131062"
       x="296.98669"
       y="180.08005"
       rx="0.67841381"
       ry="0.69736475"
       transform="matrix(0.71094856,0.70324402,-0.70324402,0.71094856,0,0)" />
    <g
       id="g3254"
       transform="matrix(0.70710678,-0.70710678,0.70710678,0.70710678,-197.37586,222.0261)">
      <rect
         transform="matrix(0.00507911,0.9999871,-0.9999871,0.00507911,0,0)"
         ry="3.7038426"
         rx="4.07792"
         y="-160.61896"
         x="301.84418"
         height="63.923901"
         width="19.451334"
         id="rect3213"
         style="fill:#fcfcfc;fill-opacity:1;stroke:#000000;stroke-width:0.85632139;stroke-linecap:butt;stroke-linejoin:miter;stroke-miterlimit:4;stroke-opacity:1;stroke-dasharray:none;stroke-dashoffset:0" />
      <path
         transform="matrix(-0.59794636,0.01053786,-0.01053786,-0.59794636,153.74373,297.88721)"
         d="m 9.6067569,-21.735456 c 0,3.811111 -3.0895164,6.900628 -6.9006281,6.900628 -3.8111116,0 -6.9006281,-3.089517 -6.9006281,-6.900628 0,-3.811112 3.0895165,-6.900629 6.9006281,-6.900629 3.8111117,0 6.9006281,3.089517 6.9006281,6.900629 z"
         sodipodi:ry="6.9006281"
         sodipodi:rx="6.9006281"
         sodipodi:cy="-21.735456"
         sodipodi:cx="2.7061288"
         id="path3139"
         style="fill:#31363b;fill-opacity:1;stroke:none"
         sodipodi:type="arc" />
      <path
         sodipodi:type="arc"
         style="fill:#31363b;fill-opacity:1;stroke:none"
         id="path3205"
         sodipodi:cx="2.7061288"
         sodipodi:cy="-21.735456"
         sodipodi:rx="6.9006281"
         sodipodi:ry="6.9006281"
         d="m 9.6067569,-21.735456 c 0,3.811111 -3.0895164,6.900628 -6.9006281,6.900628 -3.8111116,0 -6.9006281,-3.089517 -6.9006281,-6.900628 0,-3.811112 3.0895165,-6.900629 6.9006281,-6.900629 3.8111117,0 6.9006281,3.089517 6.9006281,6.900629 z"
         transform="matrix(-0.08822156,0.00155477,-0.00155477,-0.08822156,124.36396,308.99062)" />
      <path
         transform="matrix(-0.23525757,0.00414604,-0.00414604,-0.23525757,102.45105,305.78771)"
         d="m 9.6067569,-21.735456 c 0,3.811111 -3.0895164,6.900628 -6.9006281,6.900628 -3.8111116,0 -6.9006281,-3.089517 -6.9006281,-6.900628 0,-3.811112 3.0895165,-6.900629 6.9006281,-6.900629 3.8111117,0 6.9006281,3.089517 6.9006281,6.900629 z"
         sodipodi:ry="6.9006281"
         sodipodi:rx="6.9006281"
         sodipodi:cy="-21.735456"
         sodipodi:cx="2.7061288"
         id="path3207"
         style="fill:#31363b;fill-opacity:1;stroke:none"
         sodipodi:type="arc" />
      <path
         sodipodi:type="arc"
         style="fill:#31363b;fill-opacity:1;stroke:none"
         id="path3211"
         sodipodi:cx="2.7061288"
         sodipodi:cy="-21.735456"
         sodipodi:rx="6.9006281"
         sodipodi:ry="6.9006281"
         d="m 9.6067569,-21.735456 c 0,3.811111 -3.0895164,6.900628 -6.9006281,6.900628 -3.8111116,0 -6.9006281,-3.089517 -6.9006281,-6.900628 0,-3.811112 3.0895165,-6.900629 6.9006281,-6.900629 3.8111117,0 6.9006281,3.089517 6.9006281,6.900629 z"
         transform="matrix(-0.23525757,0.00414604,-0.00414604,-0.23525757,109.75646,305.78771)" />
      <rect
         style="fill:#192629;fill-opacity:1;stroke:none"
         id="rect3921-2"
         width="4.3226705"
         height="13.045694"
         x="133.73439"
         y="305.08377"
         rx="0.36458287"
         ry="0.55662668"
         transform="matrix(0.9999871,-0.00507911,0.00507911,0.9999871,0,0)" />
      <rect
         transform="matrix(0.00507911,0.9999871,-0.9999871,0.00507911,0,0)"
         ry="0.55662668"
         rx="0.36458287"
         y="-142.41856"
         x="309.44528"
         height="13.045694"
         width="4.3226705"
         id="rect3927-9"
         style="fill:#192629;fill-opacity:1;stroke:none" />
    </g>
    <g
       transform="matrix(-0.70710678,-0.70710678,-0.70710678,0.70710678,426.50474,222.0261)"
       id="g3279">
      <rect
         style="fill:#fcfcfc;fill-opacity:1;stroke:#000000;stroke-width:0.85632139;stroke-linecap:butt;stroke-linejoin:miter;stroke-miterlimit:4;stroke-opacity:1;stroke-dasharray:none;stroke-dashoffset:0"
         id="rect3281"
         width="19.451334"
         height="63.923901"
         x="301.84418"
         y="-160.61896"
         rx="4.07792"
         ry="3.7038426"
         transform="matrix(0.00507911,0.9999871,-0.9999871,0.00507911,0,0)" />
      <path
         sodipodi:type="arc"
         style="fill:#31363b;fill-opacity:1;stroke:none"
         id="path3283"
         sodipodi:cx="2.7061288"
         sodipodi:cy="-21.735456"
         sodipodi:rx="6.9006281"
         sodipodi:ry="6.9006281"
         d="m 9.6067569,-21.735456 c 0,3.811111 -3.0895164,6.900628 -6.9006281,6.900628 -3.8111116,0 -6.9006281,-3.089517 -6.9006281,-6.900628 0,-3.811112 3.0895165,-6.900629 6.9006281,-6.900629 3.8111117,0 6.9006281,3.089517 6.9006281,6.900629 z"
         transform="matrix(-0.59794636,0.01053786,-0.01053786,-0.59794636,153.74373,297.88721)" />
      <path
         transform="matrix(-0.08822156,0.00155477,-0.00155477,-0.08822156,124.36396,308.99062)"
         d="m 9.6067569,-21.735456 c 0,3.811111 -3.0895164,6.900628 -6.9006281,6.900628 -3.8111116,0 -6.9006281,-3.089517 -6.9006281,-6.900628 0,-3.811112 3.0895165,-6.900629 6.9006281,-6.900629 3.8111117,0 6.9006281,3.089517 6.9006281,6.900629 z"
         sodipodi:ry="6.9006281"
         sodipodi:rx="6.9006281"
         sodipodi:cy="-21.735456"
         sodipodi:cx="2.7061288"
         id="path3285"
         style="fill:#31363b;fill-opacity:1;stroke:none"
         sodipodi:type="arc" />
      <path
         sodipodi:type="arc"
         style="fill:#31363b;fill-opacity:1;stroke:none"
         id="path3287"
         sodipodi:cx="2.7061288"
         sodipodi:cy="-21.735456"
         sodipodi:rx="6.9006281"
         sodipodi:ry="6.9006281"
         d="m 9.6067569,-21.735456 c 0,3.811111 -3.0895164,6.900628 -6.9006281,6.900628 -3.8111116,0 -6.9006281,-3.089517 -6.9006281,-6.900628 0,-3.811112 3.0895165,-6.900629 6.9006281,-6.900629 3.8111117,0 6.9006281,3.089517 6.9006281,6.900629 z"
         transform="matrix(-0.23525757,0.00414604,-0.00414604,-0.23525757,102.45105,305.78771)" />
      <path
         transform="matrix(-0.23525757,0.00414604,-0.00414604,-0.23525757,109.75646,305.78771)"
         d="m 9.6067569,-21.735456 c 0,3.811111 -3.0895164,6.900628 -6.9006281,6.900628 -3.8111116,0 -6.9006281,-3.089517 -6.9006281,-6.900628 0,-3.811112 3.0895165,-6.900629 6.9006281,-6.900629 3.8111117,0 6.9006281,3.089517 6.9006281,6.900629 z"
         sodipodi:ry="6.9006281"
         sodipodi:rx="6.9006281"
         sodipodi:cy="-21.735456"
         sodipodi:cx="2.7061288"
         id="path3289"
         style="fill:#31363b;fill-opacity:1;stroke:none"
         sodipodi:type="arc" />
      <rect
         transform="matrix(0.9999871,-0.00507911,0.00507911,0.9999871,0,0)"
         ry="0.55662668"
         rx="0.36458287"
         y="305.08377"
         x="133.73439"
         height="13.045694"
         width="4.3226705"
         id="rect3291"
         style="fill:#192629;fill-opacity:1;stroke:none" />
      <rect
         style="fill:#192629;fill-opacity:1;stroke:none"
         id="rect3293"
         width="4.3226705"
         height="13.045694"
         x="309.44528"
         y="-142.41856"
         rx="0.36458287"
         ry="0.55662668"
         transform="matrix(0.00507911,0.9999871,-0.9999871,0.00507911,0,0)" />
    </g>
  </g>
</svg>
